<?xml version="1.0" encoding="utf-8"?>
<!-- Generator: Adobe Illustrator 19.0.0, SVG Export Plug-In . SVG Version: 6.00 Build 0)  -->
<svg version="1.1" xmlns="http://www.w3.org/2000/svg" xmlns:xlink="http://www.w3.org/1999/xlink" x="0px" y="0px"
	 viewBox="457.2 -75.5 152.1 121.9" style="enable-background:new 457.2 -75.5 152.1 121.9;" xml:space="preserve">
<style type="text/css">
	.st0{fill:url(#XMLID_4_);}
	.st1{clip-path:url(#SVGID_2_);}
	.st2{fill:url(#SVGID_3_);}
	.st3{fill:#FFFFFF;}
	.st4{fill:#666666;}
</style>
<g id="Layer_2">
</g>
<g id="Layer_1">
	<g id="XMLID_3_">
		
			<radialGradient id="XMLID_4_" cx="510.5262" cy="-59.582" r="87.1282" gradientTransform="matrix(1 0 0 1 0 0.8)" gradientUnits="userSpaceOnUse">
			<stop  offset="0" style="stop-color:#CCCCCC"/>
			<stop  offset="7.921122e-002" style="stop-color:#D5D5D5"/>
			<stop  offset="0.2105" style="stop-color:#EFEFEF"/>
			<stop  offset="0.2806" style="stop-color:#FFFFFF"/>
			<stop  offset="0.3255" style="stop-color:#F6F6F6"/>
			<stop  offset="0.4001" style="stop-color:#DCDCDC"/>
			<stop  offset="0.4952" style="stop-color:#B3B3B3"/>
			<stop  offset="0.5948" style="stop-color:#808080"/>
			<stop  offset="0.9944" style="stop-color:#000000"/>
		</radialGradient>
		<path id="XMLID_50_" class="st0" d="M542.8-66.1c-16.6,0-31.5,7.6-41.4,19.4c-2.4,2.5-4.8,5.7-6.8,9.7c-3.7,7.4-5.8,15.8-5.8,24.7
			c0,7.1,1.7,14,4.1,20.2l0,0c8,19.7,27.3,33.6,49.9,33.6c29.7,0,53.8-24.1,53.8-53.8C596.6-42,572.5-66.1,542.8-66.1z"/>
		<g id="XMLID_36_">
			<g>
				<g>
					<defs>
						<path id="SVGID_1_" d="M542.8-66.1c-16.6,0-31.5,7.6-41.4,19.4c-2.4,2.5-4.8,5.7-6.8,9.7c-3.7,7.4-5.8,15.8-5.8,24.7
							c0,7.1,1.7,14,4.1,20.2l0,0c8,19.7,27.3,33.6,49.9,33.6c29.7,0,53.8-24.1,53.8-53.8C596.6-42,572.5-66.1,542.8-66.1z"/>
					</defs>
					<clipPath id="SVGID_2_">
						<use xlink:href="#SVGID_1_"  style="overflow:visible;"/>
					</clipPath>
					<g id="XMLID_42_" class="st1">
						<g>
							<g>
								
									<linearGradient id="SVGID_3_" gradientUnits="userSpaceOnUse" x1="502.2195" y1="212.55" x2="610.3196" y2="212.55" gradientTransform="matrix(1 0 0 -1 0 200.8)">
									<stop  offset="0" style="stop-color:#000000;stop-opacity:0"/>
									<stop  offset="1" style="stop-color:#000000"/>
								</linearGradient>
								<path class="st2" d="M539.1-5.5l1.2,1.2l8.6,8.6l0.9,0.9l7.7,33.4l0.7,3.1l2.2-2.2l15.3-15.3l0.4-0.4l0.1-0.6l3.3-32.4
									l0.1-1.2c5.6-1.6,10-6.9,10.8-12.6l0.9-0.9c10.1-10.3,19-24.7,19-39.5v-1.9l-1.5,0.1c-14.5,0.8-29.2,9.6-39.3,19.6l-2,2
									c-3.1,0.9-6.1,2.5-9,5l-1.2,1.1l0.1,0.2L520.7-32l-0.6,0.1l-0.4,0.4l-15.3,15.3l-2.2,2.2L539.1-5.5z"/>
							</g>
						</g>
					</g>
				</g>
			</g>
		</g>
		<path id="XMLID_58_" class="st3" d="M582.4-51.9c-10.6-10.6-24.6-16.4-39.6-16.4s-29,5.8-39.6,16.4s-16.4,24.6-16.4,39.6
			s5.8,29,16.4,39.6c10.6,10.6,24.6,16.4,39.6,16.4s29-5.8,39.6-16.4s16.4-24.6,16.4-39.6S593-41.3,582.4-51.9z M542.8,41.5
			c-22.5,0-41.9-13.9-49.9-33.6l0,0c-2.5-6.3-4.1-13.1-4.1-20.2c0-8.9,2.1-17.3,5.8-24.7c2-4,4.4-7.2,6.8-9.7
			c9.9-11.9,24.7-19.4,41.4-19.4c29.7,0,53.8,24.1,53.8,53.8C596.6,17.3,572.5,41.5,542.8,41.5z"/>
		<g id="XMLID_15_">
			<path id="XMLID_16_" class="st3" d="M609.2-75.4c-0.1-0.1-0.2-0.1-0.3-0.1l-1.6,0.1c-14.7,0.8-29.5,9.6-39.7,19.8l-1.9,1.9
				c-3.1,0.9-6.1,2.6-9,5l-1.1,1l-36.4,5.3l-0.6,0.1c-0.1,0-0.2,0.1-0.3,0.1l-18,18c-0.2,0.4-0.2,0.6,0.2,0.8l36.6,8.6l10.6,10.6
				L556,32c0.1,0.4,0.5,0.5,0.8,0.2l18-18c0.1-0.1,0.1-0.2,0.1-0.3l3.5-33.9c5.6-1.7,10-7,10.8-12.8l0.6-0.8
				c10.1-10.3,19.3-25,19.3-39.9v-1.9C609.2-75.3,609.3-75.3,609.2-75.4S609.3-75.3,609.2-75.4z"/>
			<g id="XMLID_20_">
				<g id="XMLID_59_">
					<g>
						<path d="M559.5-18.2l-8-8l0.9-0.9c1.6-1.6,3-2.7,4.3-3.4s2.7-1.1,4.1-1.3c1.4-0.2,4.3-0.3,8.5-0.2c2.2,0.1,3.8-0.4,4.7-1.3
							s1.4-1.8,1.4-2.8s-0.4-1.9-1.3-2.8c-1-1-2.2-1.4-3.6-1.3c-1.4,0.1-3.2,1-5.3,2.8l-7-9.4c3.8-3.2,7.7-5,11.8-5.2
							c4.1-0.2,8.1,1.6,12,5.6c3.1,3.1,4.8,6.3,5.2,9.7c0.5,4.6-0.9,8.6-4.2,11.9c-1.4,1.4-3.1,2.4-5,3c-2,0.6-4.9,0.9-8.8,0.7
							c-2.7-0.1-4.7,0-5.9,0.5C562-20.4,560.8-19.5,559.5-18.2z"/>
					</g>
				</g>
				<g id="XMLID_31_">
					<g>
						<path d="M548.7-24.1l8.6,8.6l-8.8,8.8l-8.6-8.6L548.7-24.1z"/>
					</g>
				</g>
				<g id="XMLID_51_">
					<path d="M556.5-45.4l6.8,9.2c0,0-7.2,0.7-14.1,7.6l-11.4,11.5l-33.7-7.7l15.3-15.3L556.5-45.4z"/>
				</g>
				<g id="XMLID_13_">
					<path d="M563.5-18.7c-0.6,0.4-1.5,1.3-2.3,2.1L549.8-5.2l7.7,33.7l15.3-15.3l3.3-32.4l-10.6,0.1
						C565.6-19.1,564.1-19.1,563.5-18.7z"/>
				</g>
				<g id="XMLID_24_">
					<path d="M607.7-73.3c0,0-20.5,1.2-38.5,19.1c0,0,4.2,0,9,2.8c12.9-11.9,23.5-16.1,23.5-16.1c-2.7,7.8-11.2,17.9-15.9,23.2
						c3.3,5.1,2.5,9.3,2.5,9.3S607.7-54.6,607.7-73.3z"/>
				</g>
				<polyline id="XMLID_11_" class="st3" points="537.1,-23.1 515.2,-27.9 519,-31.7 544.8,-30.9 536.6,-22.7 				"/>
				<polyline id="XMLID_22_" class="st3" points="555.5,-4.7 560.2,17.2 564.3,13.1 563.5,-12.8 555,-4.3 				"/>
			</g>
		</g>
		<g id="Stripes">
			<path id="XMLID_33_" class="st4" d="M544.7,9.2c-1.7-1.7-3.4-3.4-5-5c-0.5-0.5-1.4-0.5-1.9,0c-5.4,5.7-11.2,11-17.3,15.9
				c-6.1,4.8-12.6,9.4-19.6,12.9c-3.5,1.8-7.4,3.4-11.4,3.4c-2.4,0-4-18.9-2.1-24.9c1.5-4.8,2.4-5.8,3.4-7.7
				c-0.7-1.8-1.9-7.4-2.4-9.3c-2.4,2.8-5,8.3-6.6,12c-1.5,3.4-7.2,16.1-6.1,19.8c0.6,1.8,5.1,11.3,5.7,11.9c1.5,1.5,3.2,2.7,5,3.7
				c1.6,1,3.6,2.1,5.5,2.4c2.7,0.4,6-0.5,8.6-1.3c5.4-1.7,10.4-4.6,15.1-7.6c10.6-6.9,20.4-15.1,29-24.2
				C545.2,10.6,545.2,9.8,544.7,9.2z"/>
			<path id="XMLID_47_" d="M535.9,0.9c-1.7-1.7-3.4-3.4-5-5c-0.2-0.2-0.5-0.3-0.7-0.4c-0.4-0.1-0.8,0-1.1,0.4
				c-6,6.3-12.5,12.2-19.4,17.5c-3.5,2.6-7.1,5.1-10.7,7.4c-3.7,2.3-7.6,4.5-11.8,6c-4.4,1.5-9.5,2.1-13.4-1c0-0.1-0.1-0.3-0.1-0.4
				s0-0.1,0-0.1s0-0.1,0-0.2c0-0.2,0-0.5,0-0.7c0-1.1,0.1-2.1,0.3-3.1c0.5-2.9,1.4-5.8,2.4-8.6c2.3-6.7,5.3-13.3,9.1-19.3
				c0.9-1.5,1.9-2.9,3.1-4.3c0-0.6,0-1.3,0-1.9c0-0.7,0.2-3.3,0.2-3.9c0,0-9.1,10.5-12.4,15.7c-1.8,2.8-3.4,5.7-4.7,8.7
				c-1.3,3.1-2.6,6.3-3,9.6c-0.5,3.8,0.3,7.6,3.3,10.2c0.8,1.5,2.3,2.7,3.5,3.7c1.7,1.3,2.9,2.7,4.9,3.6c4.6,2.1,10.1,0.8,14.7-1.1
				c5.1-2.1,9.9-5,14.5-8.1s9-6.4,13.2-10c4.7-4,9.3-8.2,13.5-12.8C536.4,2.3,536.4,1.4,535.9,0.9z"/>
			<path id="XMLID_1_" class="st4" d="M528.6-8.2c-1.7-1.7-3.8-3.2-5.4-4.8c-0.5-0.5-2.5-0.6-3-0.1C514-6.4,507.5-0.7,500.2,4.8
				c-3.7,2.7-7.7,5.3-11.6,7.7c-3.9,2.4-7.9,4.4-12.4,5.5c-2.9,0.7-4.6,1.3-7.4,0.1c-0.1-0.1-1.4-1.2-1.5-1.3
				c-0.3-0.3,8.1-24.4,12.5-30.7c2.3-3.3,4.8-6.5,7.4-9.6c0.8-1,1.7-2,2.5-2.9c0.4-1.7,0.9-3.4,1.5-5.1
				c-6.6,5.2-12.8,10.8-18.1,17.2c-5.5,6.6-11.1,12.9-12.9,21.4c-0.6,2.7-1.1,7.1,0.4,9.6c1,1.7,10.9,9.9,13.3,10.5
				c2.9,0.7,7.3,0.2,10.1-0.7c3.1-1,6.7-3,9.5-4.6c6.4-3.6,11.9-7.3,17.6-11.8c5.8-4.6,11.9-9.9,17-15.3
				C528.6-5.5,529.1-7.7,528.6-8.2z"/>
			<path class="st3" d="M546.5,8l-3.4-3.4l-1.7-1.7c-0.6-0.6-1.6-1-2.5-1c-0.1,0-0.3,0-0.4,0c0-0.8-0.4-1.6-1-2.2l-5-5
				c-0.5-0.5-1.2-0.9-1.9-1c-0.2,0-0.4-0.1-0.6-0.1c0,0-0.1,0-0.1,0c0.1-1.1-0.2-2.2-1-2.9l-3.4-3.4l-1.7-1.7c-0.6-0.6-1.6-1-2.5-1
				c-1,0-1.9,0.4-2.5,1.1c-6.3,6.6-13,12.7-20.1,17.9c-3.4,2.6-6.6,4.7-9.6,6.6c0.6-1.9,1.3-3.2,1.8-4.4c-0.3-1-0.6-1.9-0.9-2.9
				c-0.9,1.7-2.1,3.8-3.5,8.1c-0.1,0.3-0.2,0.6-0.3,0.9c-1.8,1.1-3.8,2.1-5.9,3c0.9-2.6,1.8-5.4,2.7-7.4c1.6-3.5,3.2-8.1,5.4-10.9
				c-0.1-0.8-0.3-1.7-0.4-2.5c-0.2,0.1-0.4,0.1-0.5,0.3c0.2-0.4,0.4-0.7,0.7-1.2c-0.1-1.1-0.2-2.3-0.2-3.4c-1,1.2-1.8,2.5-2.6,3.8
				c-3.8,6-6.8,12.6-9.1,19.3c-0.4,1.2-0.8,2.5-1.2,3.8c-1.1,0.2-2.2,0.4-3.1,0.4c-1.4,0-2.5-0.2-3.6-0.6c0.6-3,1.7-5.8,2.8-8.6
				c1.3-3,2.9-5.9,4.7-8.7c2.9-4.4,9.9-12.8,11.9-15.1c0.1-0.9,0.1-1.9,0.2-2.8c-0.5,0.1-1,0.3-1.4,0.7c-0.3,0.3-4.3,5-8,9.7
				c0.9-1.4,1.9-2.8,2.9-4.2c2.4-3.3,4.6-6.2,6.8-8.9c0.2-1.5,0.5-2.9,0.9-4.3c-0.3,0.4-0.6,0.7-0.9,1c-0.4,0.4-0.8,0.9-1.1,1.3
				c-0.2,0.2-0.3,0.4-0.5,0.6c-2.4,2.9-4.7,5.9-6.9,9c-0.1,0.1-0.1,0.2-0.2,0.3C475.7-8,472-2.3,469,3.7c-0.4,0.7-0.7,1.4-1,2.2
				c-1.2,2.5-2.2,5.1-2.7,7.9c-0.1,0.6-0.1,1.9,0,2.3c0,0.2,0.1,0.3,0.1,0.5c0,0,0.2,0.3,0.2,0.4c0.1,0.1,0.2,0.2,0.3,0.3
				c0,0,0,0.1,0,0.1c0.3,0.3,0.6,0.6,0.9,0.9c0.1,0.1,0.3,0.3,0.4,0.4c0.3,0.1,0.6,0.2,0.9,0.3c0,0,0,0,0,0c0.5,0.2,1.1,0.3,1.6,0.4
				c2.2,0.4,4.5,0.2,6.6-0.3c4.5-1.1,8.7-3.3,12.6-5.7c3.9-2.4,7.6-5,11.3-7.7c7.3-5.5,14.1-11.6,20.4-18.2c0.2-0.2,0.4-0.3,0.7-0.3
				c0,0,0,0,0,0c0.4-0.1,0.9,0,1.2,0.3c1.6,1.6,3.3,3.3,5,5c0.4,0.4,0.5,1,0.2,1.5c-0.1,0.2-0.2,0.3-0.3,0.5
				c-5.1,5.4-10.5,10.4-16.3,15c-5.7,4.6-11.9,8.9-18.3,12.4c-0.1,0.1-0.3,0.1-0.4,0.2c-1.5,0.8-3,1.6-4.6,2.3
				c-0.1,0.1-0.3,0.1-0.4,0.2c-1.2,0.5-2.3,1-3.5,1.4c-2.8,0.9-6.3,1.7-9.2,1c-2.4-0.6-4.5-2.2-6.3-3.7c-1.1-0.9-2.1-1.8-3.1-2.7
				c-0.9-0.5-1.7-1.1-2.5-1.8c-0.6-0.6-1.2-1.2-1.7-2c-0.4-0.6-0.6-1.3-0.8-2.1c-0.5-2.1-0.2-4.4,0.3-6.5
				c1.8-8.5,6.9-15.7,12.4-22.3c5.2-6.3,11.3-11.8,17.7-16.9c0.3-0.8,0.5-1.5,0.9-2.2c-0.2,0-0.3,0-0.5,0c-0.5,0-1,0.2-1.4,0.5
				c-7.5,5.9-13.5,11.6-18.5,17.6C466-9,460.4-1.3,458.4,8c-0.7,3.2-1.1,6.8,0.8,10c1.1,1.8,2.8,3.4,4.8,4.5c1,0.9,2,1.7,2.9,2.5
				c0.6,1.5,1.5,2.8,2.7,3.9c1,1.6,2.5,2.9,3.9,4c1.2,0.9,2.3,1.7,3.5,2.4c0.5,0.7,1,1.3,1.6,1.9c0.6,0.9,1.3,1.7,2,2.4
				c1.5,1.5,3.4,2.9,5.5,4.1c1.4,0.9,3.7,2,6.1,2.4c0.7,0.1,1.5,0.2,2.3,0.2c2.1,0,4.3-0.4,6.8-1.2c5.8-1.8,11.2-5,15.6-7.9
				c10.7-6.9,20.6-15.2,29.4-24.6C547.9,11.5,547.9,9.3,546.5,8z M480.4,34.8c-0.6-0.3-1.1-0.6-1.6-0.9l0,0c0,0,0,0-0.1,0
				c-0.1,0-0.1-0.1-0.2-0.1c0,0,0,0,0,0c-0.7-0.5-3.1-2-4-2.7l0,0c-0.9-0.7-1.8-1.5-2.4-2.4c0.6,0.3,1.3,0.6,2,0.8
				c0.2,0,0.5,0.1,0.7,0.1c0,0,0.9,0.3,2.3,0.3c0,0,0,0,0,0c0.1,0,0.1,0,0.2,0c1.7,0,3.6-0.3,5.7-0.9c0,0,1.4-0.4,2.4-0.7
				c0.2-0.1,0.4-0.2,0.6-0.2c0.7-0.3,1.5-0.6,2-0.8c1.9-0.8,3.8-1.7,6-3c3.3-1.9,6.6-4,10.1-6.4c1.9-1.3,3.8-2.7,5.7-4.1
				C516.6,8.3,523,2.5,529-4c0.3-0.3,0.6-0.4,0.9-0.4c0.1,0,0.2,0,0.2,0c0.3,0,0.5,0.1,0.7,0.4c1.7,1.7,3.4,3.4,5,5
				c0.5,0.5,0.5,1.3,0,1.9c-4.3,4.5-8.8,8.8-13.5,12.8c-4.2,3.5-8.6,6.9-13.2,10c-0.2,0.1-0.3,0.2-0.5,0.3c-1.7,1-3.3,2-4.8,2.8l0,0
				c0,0-0.5,0.3-1.4,0.8c-0.8,0.4-1.6,0.8-2.3,1.2c-0.4,0.2-0.8,0.4-1.2,0.6c-4.1,2-9.9,4.3-13.9,4.4c0,0,0,0,0.1,0
				c-0.1,0-0.2,0-0.4,0c0,0-0.1,0-0.1,0l0,0C483.2,35.7,481.8,35.4,480.4,34.8z M544.6,11.2c-8.7,9.2-18.4,17.4-29,24.2
				c-4.7,3-9.7,6-15.1,7.6c-1.9,0.6-4.1,1.1-6.1,1.1c-0.7,0-1.3,0-2-0.1c-1.9-0.3-3.7-1.2-5.3-2.1c-1.8-1.1-3.5-2.3-5-3.8
				c-0.2-0.2-0.4-0.4-0.7-0.7c1.4,0.4,2.8,0.6,4.3,0.6c2.9,0,6-0.7,9.6-2.2c2.6-1.1,5-2.3,7.3-3.6c6.4-3.4,12.3-7.6,17.9-12
				c6.2-4.8,12-10.2,17.3-15.9c0.2-0.3,0.6-0.4,0.9-0.4c0.3,0,0.7,0.1,0.9,0.4c1.7,1.7,3.4,3.4,5,5C545.1,9.8,545.1,10.5,544.6,11.2
				z"/>
		</g>
		<path id="XMLID_9_" class="st3" d="M491.2,9.4l2.1-0.7c-0.1-0.3-0.2-0.6-0.4-0.9l0,0c-2.5-6.3-4.1-13.1-4.1-20.2
			c0-7.8,1.6-15.2,4.6-21.9l-2.2,0.2c-2.9,6.8-4.4,14.2-4.4,21.8S488.3,2.5,491.2,9.4z"/>
	</g>
</g>
</svg>
