<?xml version="1.0" encoding="utf-8"?>
<!-- Generator: Adobe Illustrator 19.0.0, SVG Export Plug-In . SVG Version: 6.00 Build 0)  -->
<svg version="1.1" id="Layer_1" xmlns="http://www.w3.org/2000/svg" xmlns:xlink="http://www.w3.org/1999/xlink" x="0px" y="0px"
	viewBox="0 0 200 161" style="enable-background:new 0 0 200 161;" xml:space="default">
<style type="text/css">
	.st0 {fill:url(#XMLID_18_);}
	.st1 {fill:#FFFFFF;}
	.st2 {fill:#666666;}
	.st3:hover{fill:darkred;}
</style>
<g id="XMLID_86_" class='st3'>
	<g id="XMLID_9_">		
			<radialGradient id="XMLID_18_" cx="68.89" cy="29.0504" r="106.0689" gradientTransform="matrix(0.999 0 0 0.9926 -2.136163e-004 1.1981)" gradientUnits="userSpaceOnUse">
			<stop  offset="0" style="stop-color:#CCCCCC"/>
			<stop  offset="7.921122e-002" style="stop-color:#D5D5D5"/>
			<stop  offset="0.2105" style="stop-color:#EFEFEF"/>
			<stop  offset="0.2806" style="stop-color:#FFFFFF"/>
			<stop  offset="0.3255" style="stop-color:#F6F6F6"/>
			<stop  offset="0.4001" style="stop-color:#DCDCDC"/>
			<stop  offset="0.4952" style="stop-color:#B3B3B3"/>
			<stop  offset="0.5948" style="stop-color:#808080"/>
			<stop  offset="0.9944" style="stop-color:#000000"/>
		</radialGradient>
		<path id="XMLID_76_" class="st0" d="M108.1,21.1c-20.2,0-38.3,9.1-50.3,23.5c-3,3.1-5.8,6.9-8.3,11.7c-4.5,9-7.1,19.1-7.1,29.8
			c0,8.6,2,16.9,5,24.4l0,0c9.7,23.8,33.2,40.6,60.6,40.6c36.1,0,65.4-29.2,65.4-65C173.5,50.3,144.2,21.1,108.1,21.1z"/>
		<g id="XMLID_53_">
			<g id="XMLID_54_">
				<path id="XMLID_48_" d="M124.8,46.1l8.3,11.2c0,0-8.8,0.9-17.2,9.2l-13.9,13.8L61,71l18.6-18.5L124.8,46.1z"/>
				<path id="XMLID_57_" d="M133.3,78.4c-0.8,0.5-1.8,1.5-2.9,2.6l-13.9,13.8l9.4,40.8l18.6-18.5l4.1-39.2l-12.9,0.1
					C135.8,77.9,134,77.9,133.3,78.4z"/>
				<path id="XMLID_64_" d="M187.1,12.5c0,0-24.9,1.4-46.8,23.1c0,0,5.1,0,11,3.3c15.7-14.4,28.6-19.4,28.6-19.4
					c-3.3,9.5-13.6,21.7-19.4,28c4,6.2,3.1,11.3,3.1,11.3S187.1,35.1,187.1,12.5z"/>
				<g id="XMLID_10_">
					<g id="XMLID_85_">
						<path id="XMLID_90_" class="st1" d="M195.1,12.3c0-4.4-3.6-7.2-8-8.2c0,0,0,0,0,0c0,0-0.1,0-0.1,0h0c0,0,0,0,0,0
							c-0.2,0-0.3,0.3-0.5,0.3c-2.2,0.1-24.8,2.2-46.4,20.6c-9.6-4.9-20.4-7.8-31.9-7.8c-20.6,0-40,9-53.3,24.8
							c-3.5,3.6-6.5,7.8-8.9,12.6c-1.3,2.6-2.5,5.3-3.4,8c-8.5,6.7-15.4,13.3-21.2,20.2C14.9,90.4,8,99.7,5.6,111
							c-0.8,3.9-1.4,8.4,1,12.3c1.4,2.3,3.4,4.2,5.9,5.6c1.2,1.1,2.5,2.2,3.5,3.1c0.8,1.7,1.9,3.2,3.2,4.5c1.3,2,3.1,3.6,4.8,4.9
							c1.4,1.1,2.8,2.1,4.2,2.9c0.6,0.8,1.2,1.5,1.9,2.2c0.7,1.1,1.6,2,2.5,2.9c1.9,1.9,4.2,3.6,6.7,5.1c1.8,1,4.5,2.5,7.5,3
							c0.9,0.1,1.9,0.2,2.9,0.2c2.5,0,5.3-0.5,8.3-1.4c6.7-2.1,12.8-5.6,17.9-8.9c9.7,5,20.7,7.8,32.2,7.8c38.3,0,69.4-31,69.4-69
							c0-8.9-1.7-17.5-4.9-25.3c7-8,22.3-27.9,22.4-48C195.1,12.7,195.1,12.4,195.1,12.3z M154.6,72.6c-1.5-1.6-3.6-2.6-5.9-2.6
							c0,0,0,0,0,0c0,0,0,0-0.1,0l-12.9,0.2c-1.9,0-4.5-0.2-6.7,1.8c0,0,0,0,0,0l-3.1-3.2c4.1-2.7,7.5-3.4,8-3.5
							c2.3-0.2,4.3-1.4,5.6-3.2c0.2,0,0.5,0,0.7,0c0.2,0,0.3,0,0.5,0c2.5,0,4.2-0.5,5.2-1.5c1.1-1.1,1.7-2.2,1.7-3.4
							c0.1-1.2-0.5-2.3-1.6-3.4c-1.1-1.1-2.4-1.6-3.9-1.6c-0.2,0-0.4,0-0.5,0c-0.6,0.1-1.3,0.2-2.1,0.6c0-0.1-0.1-0.1-0.1-0.2
							l-8.3-11.2c-0.1-0.1-0.1-0.1-0.2-0.2c0.8-0.5,1.6-0.9,2.4-1.3c1.4,2.3,3.9,3.7,6.6,3.7c0.1,0,0.1,0,0.2,0
							c0.5,0,3.6,0.3,7.1,2.3c1.2,0.7,2.6,1,3.9,1c0.4,0,0.9,0,1.3-0.1c-0.1,1.7,0.3,3.5,1.3,5c1.8,2.8,1.9,5,1.9,5.6
							c-0.9,3.5,0.8,6.8,3.9,8.6c0.2,0.1,0.4,0.2,0.6,0.3c-0.8,1.6-1.9,3-3.3,4.4C156.2,71.5,155.4,72.1,154.6,72.6z M72.4,135.8
							c3.4-2.3,6.9-4.9,10.7-7.8c7.2-5.6,14-11.8,20.4-18.4l4.1,4.1c-9.2,9.5-19.3,18-30.1,25.4C75.8,138.1,74.1,137,72.4,135.8z
							M108.2,85.5l7.7-7.7l3.2,3.1l-7.8,7.7L108.2,85.5z M119.2,46.9c0.3,0.7,0.6,1.4,1.1,2.1l4.8,6.3c-1.3,0.4-2.5,0.9-3.8,1.6
							c-1.4,0.7-2.8,1.7-4.3,2.9l-0.2-0.2l-5.6,5.6L99.5,76.9l-2.4,2.3L61,71l18.6-18.5L119.2,46.9z M81.5,117.8
							c-5.1,4.2-10.4,8.2-15.8,11.9c-0.1,0.1-0.2,0.1-0.3,0.2c-1.4-1.3-2.7-2.7-3.9-4.2c2.7-1.8,5.5-3.8,8.2-5.8
							c8-6,15.8-12.9,23-20.4l4.1,4.1C91.9,108.7,86.8,113.4,81.5,117.8z M33.2,130.9c-0.5,0.1-1,0.2-1.5,0.3
							c0.4-1.7,0.9-3.4,1.4-4.9c0.1-0.2,0.1-0.4,0.2-0.6c0.3-0.1,0.5-0.2,0.8-0.3C33.9,127.2,33.5,129.1,33.2,130.9z M24.1,111.8
							c1.5-3.5,3.4-6.9,5.4-10c0.6-0.9,1.3-2,2.2-3.1c-2.8,5.2-5.2,10.9-7.4,17.1c-0.8,2.4-1.5,4.5-2,6.5c-0.6,0-1.1,0-1.6-0.1
							C21.3,118.5,22.7,115,24.1,111.8z M68.1,110.5c-4.1,3.3-7.9,6.1-11.6,8.6c-1-1.6-2-3.2-2.9-4.9c1.6-1.1,3.1-2.2,4.7-3.4
							c8.5-6.3,16.6-13.4,24.1-21.3l4.1,4.1C80.8,99.6,74.5,105.3,68.1,110.5z M49.7,123.4c-1.1,0.7-2.3,1.3-3.4,2
							c-2.4,1.3-4.6,2.4-6.6,3.3c0.4-2.2,0.8-4.4,1.2-6.6c1.2-0.6,2.3-1.3,3.4-1.9c0.8-0.5,1.7-1,2.6-1.6
							C47.8,120.2,48.7,121.8,49.7,123.4z M43.2,113.8c0.2-0.6,0.4-1.2,0.6-1.7c0.1,0.1,0.1,0.3,0.2,0.4c0.1,0.2,0.2,0.4,0.3,0.6
							C43.9,113.4,43.5,113.6,43.2,113.8z M21,128.2c0,0,0-0.1,0-0.1c0,0,0.1,0,0.1,0C21.1,128.2,21.1,128.2,21,128.2
							C21.1,128.3,21,128.2,21,128.2z M32,138.2c0,0.1,0,0.3-0.1,0.4c0-0.1-0.1-0.3-0.1-0.4c0,0,0,0,0,0
							C31.9,138.2,32,138.2,32,138.2z M38,140.9c0-0.1,0-0.1,0-0.2c0-1.1,0.1-2.2,0.3-3c0-0.1,0-0.1,0-0.2c1-0.2,2.1-0.5,3.1-0.9
							c4.9-1.7,9.5-4.2,13.2-6.5c1.2,1.5,2.5,2.8,3.8,4.2c-3,1.8-6.3,3.5-9.8,4.9c-3.7,1.5-6.9,2.2-9.7,2.2
							C38.5,141.3,38.2,141.1,38,140.9z M106.7,104.3c-0.9-0.9-2.1-1.4-3.3-1.3c-0.1,0-0.1,0-0.2,0c-0.1-1-0.5-1.9-1.3-2.7
							c0,0,0,0,0,0l-6.1-6.1c-0.7-0.7-1.6-1.2-2.5-1.3c-0.1,0-0.1,0-0.2,0c-0.1-1-0.5-1.9-1.3-2.7L86.5,85l12.7,2.9l0.3,0.3l9.5,9.5
							l2.7,11.6L106.7,104.3z M122.2,99.6L134,87.9l4.7-4.6c0.3,0,0.7,0,1.1,0c1.1,0,2.2,0.1,3.2,0.1c1.9,0,3.6-0.1,5.2-0.3
							l-3.5,33.9L126,135.5l-7.4-32.3L122.2,99.6z M60.7,47.4c0.1-0.1,0.1-0.1,0.2-0.2c11.7-14,29-22.1,47.2-22.1
							c9.2,0,17.9,2,25.7,5.6c-0.1,0.2-0.2,0.4-0.3,0.5c-4.1,1.3-8.1,3.6-11.9,6.8c-0.2,0.2-0.4,0.3-0.5,0.5l-42.5,5.9
							c-1.7,0.2-3.3,1-4.5,2.2L55.4,65.3c-2.1,2.1-2.9,5.1-2.1,7.9c0.8,2.8,3.1,4.9,5.9,5.6l20.9,4.8c-0.3,0.2-0.7,0.4-1,0.7
							c-7.6,8-15.8,15.3-24.4,21.6c-1.3,0.9-2.5,1.8-3.8,2.7c-3-7.7-4.6-15.3-4.6-22.5c0-9.9,2.2-19.3,6.7-28
							C55.2,54,57.7,50.4,60.7,47.4z M11.2,117.8c0,0.2-0.1,0.5-0.1,0.9c-0.5-1.9-0.1-4.3,0.4-6.4c2.1-9.9,8.2-18.2,14.5-25.6
							c1.6-2,3.4-3.9,5.3-5.8c-0.6,0.8-1.2,1.7-1.9,2.6c-6.5,9.2-11.2,16.9-14.6,24.2C13.3,110.5,11.8,114,11.2,117.8z M56.2,150.4
							c-3.3,1-6.2,1.4-8.5,1c-2-0.3-4-1.4-5.4-2.2c-0.6-0.4-1.3-0.8-1.9-1.2c1,0.2,2.1,0.2,3.1,0.2c5.5-0.1,10.8-2.3,15.2-4.5
							c2.1-1,4.2-2.2,6.4-3.5c1.6,1.2,3.2,2.4,4.9,3.5C65.9,146.4,61.2,148.9,56.2,150.4z M108.1,147.1c-8.6,0-16.9-1.8-24.4-5
							c10.5-7.4,20.3-15.9,29.2-25.3c0.2-0.2,0.3-0.3,0.4-0.5l4.8,21c0.7,2.8,2.8,5.1,5.6,5.9c0.7,0.2,1.5,0.3,2.2,0.3
							c2.1,0,4.1-0.8,5.6-2.3l18.6-18.5c1.3-1.3,2.1-3,2.3-4.8l3.8-37c2.3-1.1,4.3-2.5,6.1-4.3c2-2,3.6-4.2,4.8-6.5
							c1.4,5.1,2.2,10.5,2.2,16.1C169.5,119.7,142,147.1,108.1,147.1z M169.3,52.3c-0.9-3.3-2.4-6.5-4.7-9.5
							c5.7-6.6,12.7-15.8,15.2-23.3c0,0-10.3,4-23.7,15.1c-1.8-1.3-3.7-2.3-5.5-3c-1.1-0.8-2.1-1.6-3.2-2.4
							c19.8-15.6,39.6-16.8,39.6-16.8C187.1,27.8,176.3,43.7,169.3,52.3z"/>
						<polygon id="XMLID_17_" class="st1" points="104.7,60.9 77.4,60.9 72.4,65.8 94.5,71.1 						"/>
						<polygon id="XMLID_8_" class="st1" points="126.9,101.4 132.2,125.2 137.6,119.8 137.6,90.7 						"/>
					</g>
					<path id="XMLID_19_" d="M116.9,70.9l11.4,11.4l-11.7,11.7l-11.4-11.4L116.9,70.9z"/>
				</g>
				<path id="XMLID_29_" d="M128.4,79l-9.8-9.7l1.1-1.1c1.9-1.9,3.7-3.3,5.3-4.1c1.6-0.8,3.3-1.4,5-1.6c1.7-0.3,5.2-0.3,10.3-0.2
					c2.7,0.1,4.6-0.4,5.7-1.5c1.1-1.1,1.7-2.2,1.7-3.4c0.1-1.2-0.5-2.3-1.6-3.4c-1.2-1.2-2.7-1.7-4.4-1.6c-1.7,0.1-3.9,1.3-6.4,3.4
					l-8.5-11.4c4.6-3.9,9.4-6,14.3-6.3c4.9-0.3,9.8,2,14.6,6.7c3.7,3.7,5.9,7.6,6.3,11.7c0.7,5.5-1.1,10.4-5.1,14.4
					c-1.7,1.7-3.7,2.9-6.1,3.7c-2.4,0.8-6,1-10.7,0.8c-3.3-0.1-5.7,0.1-7.1,0.6C131.5,76.4,130,77.4,128.4,79z"/>
			</g>
		</g>
		<path id="XMLID_69_" class="st2" d="M110.7,112.5c-2-2-4.1-4.1-6.1-6.1c-0.6-0.6-1.7-0.6-2.3,0c-6.5,6.9-13.6,13.3-21.1,19.2
			c-7.4,5.8-15.3,11.4-23.8,15.5c-4.3,2.1-9,4.1-13.9,4.1c-3,0-6.2-0.8-8.5-2.7c0,0,0-0.1,0-0.1c0-0.2-0.1-0.3-0.1-0.5
			c0,0,0,0,0-0.1c0,0,0,0,0,0c0-0.1,0-0.2,0-0.3c0-0.3,0-0.6,0-0.9c0-1.2,0.2-2.4,0.4-3.6c1.4-7.5,2.3-15.5,4.6-22.7
			c1.8-5.8,3.4-8.3,4.6-10.5c-0.8-2.2-1.1-5.2-1.7-7.5c-2.9,3.4-5.1,9.3-7.1,13.8c-1.8,4.1-3.8,10.8-5.3,15.1
			c-1.6,4.3-2.8,9.3-1.4,13.8c0.7,2.1,1.9,4,3.5,5.4c0.6,1,1.4,1.9,2.2,2.7c1.8,1.8,3.9,3.3,6.1,4.6c2,1.2,4.2,2.2,6.4,2.6
			c3.3,0.5,6.7-0.1,9.8-1.1c6.5-2,12.6-5.5,18.3-9.2c12.9-8.3,24.8-18.2,35.3-29.3C111.3,114.1,111.4,113.1,110.7,112.5z"/>
		<path id="XMLID_55_" d="M99.8,102.5c-2-2-4.1-4.1-6.1-6.1c-0.3-0.3-0.6-0.4-0.9-0.5c-0.4-0.1-0.9,0-1.4,0.5
			c-7.3,7.7-15.2,14.8-23.6,21.1c-4.2,3.2-8.6,6.2-13.1,9c-4.5,2.8-9.3,5.5-14.3,7.2c-5.3,1.8-11.6,2.5-16.3-1.2
			c-0.1-0.2-0.1-0.3-0.1-0.5c0-0.1,0-0.1,0-0.2c0,0,0-0.1,0-0.2c0-0.3,0-0.6,0-0.9c0-1.3,0.2-2.5,0.4-3.7c0.6-3.5,1.7-7,2.9-10.4
			c2.8-8.1,6.4-16,11-23.3c1.1-1.8,2.3-3.6,3.7-5.2c0-0.8,0-1.6,0-2.3c0-0.8,0.2-3.9,0.2-4.7c0,0-11,12.7-15.1,19
			c-2.2,3.3-4.1,6.8-5.7,10.5c-1.6,3.7-3.2,7.6-3.7,11.6c-0.6,4.6,0.4,9.2,4,12.4c1,1.8,2.8,3.3,4.3,4.5c2,1.6,4.2,3,6.6,4.1
			c5.6,2.5,11.7,1.2,17.2-1.1c6.3-2.6,12.1-6.1,17.6-9.8c5.6-3.7,10.9-7.8,16.1-12c5.8-4.8,11.3-10,16.4-15.4
			C100.4,104.1,100.4,103.1,99.8,102.5z"/>
		<path id="XMLID_7_" class="st2" d="M89.7,92.4c-2-2-4.1-4.1-6.1-6.1c-0.6-0.6-1.7-0.6-2.3,0c-7.6,8-15.9,15.4-24.8,22
			c-4.4,3.3-9,6.4-13.8,9.3c-4.8,2.9-9.9,5.6-15.3,6.9c-3.6,0.9-7.6,1-11-0.5c-0.2-0.2-0.3-0.3-0.5-0.5c-0.4-0.4-0.7-0.7-1.1-1.1
			c-0.1-0.1-0.2-0.2-0.3-0.3c0,0,0,0,0,0c0-0.1-0.2-0.4-0.2-0.4c-0.1-0.2-0.1-0.4-0.2-0.6c-0.1-0.5-0.1-2.1,0-2.8
			c0.6-3.3,1.9-6.5,3.3-9.5c3.9-8.4,9-16.2,14.3-23.7c2.8-4,5.8-7.9,9-11.6c1-1.2,2-2.4,3.1-3.5c0.5-2.1,1.1-4.1,1.8-6.1
			c-8,6.3-15.5,13-22.1,20.8c-6.7,8-12.9,16.6-15.1,26.9c-0.7,3.3-1.2,7.1,0.6,10.1c1.2,2,3.1,3.6,5.1,4.7c1.2,1.1,2.5,2.2,3.7,3.3
			c2.2,1.8,4.8,3.8,7.6,4.5c3.6,0.9,7.7-0.1,11.2-1.2c3.8-1.3,7.5-3.1,11-5c7.8-4.3,15.2-9.6,22.1-15.2c7-5.6,13.6-11.6,19.8-18.1
			C90.3,94,90.3,93,89.7,92.4z"/>
	</g>
</g>
</svg>
